<svg xmlns="http://www.w3.org/2000/svg" version="1.1" xmlns:xlink="http://www.w3.org/1999/xlink" xmlns:svgjs="http://svgjs.dev/svgjs" width="1000" height="464" viewBox="0 0 1000 464"><g transform="matrix(1,0,0,1,0.1066666666666265,-0.37646484375)"><svg viewBox="0 0 375 174" data-background-color="#ffffff" preserveAspectRatio="xMidYMid meet" height="464" width="1000" xmlns="http://www.w3.org/2000/svg" xmlns:xlink="http://www.w3.org/1999/xlink"><g id="tight-bounds" transform="matrix(1,0,0,1,-0.03976036071776434,0.14117431640625)"><svg viewBox="0 0 375.07952880859375 173.7176513671875" height="173.7176513671875" width="375.07952880859375"><g><svg></svg></g><g><svg viewBox="0 0 375.07952880859375 173.7176513671875" height="173.7176513671875" width="375.07952880859375"><g transform="matrix(1,0,0,1,-10.220239639282227,-41.59153747558594)"><path xmlns="http://www.w3.org/2000/svg" d="M10.22 205.608v-164.016h375.08v164.016l-175.321 0 0-5.513h169.807v-152.99h-364.052v152.99h12.688l0 5.513z" fill="#a437db" fill-rule="nonzero" stroke="none" stroke-width="1" stroke-linecap="butt" stroke-linejoin="miter" stroke-miterlimit="10" stroke-dasharray="" stroke-dashoffset="0" font-family="none" font-weight="none" font-size="none" text-anchor="none" style="mix-blend-mode: normal" data-fill-palette-color="tertiary"></path><g><path xmlns="http://www.w3.org/2000/svg" d="M60.521 190.504v2.277h-3.485v10.427c0 1.335-0.274 2.492-0.823 3.469-0.549 0.981-1.293 1.727-2.233 2.239-0.944 0.512-2.01 0.768-3.2 0.768v0c-1.171 0-2.259-0.201-3.265-0.604-1.006-0.402-1.857-0.896-2.552-1.481v0l1.235-1.976c1.537 1.134 2.973 1.701 4.308 1.701v0c1.134 0 2.031-0.344 2.689-1.031 0.659-0.684 0.988-1.731 0.988-3.139v0l-0.028-10.373h-4.884v-2.277zM75.339 207.05l0.548 1.948c-0.604 0.366-1.308 0.549-2.113 0.549v0c-0.677 0-1.248-0.198-1.712-0.593-0.468-0.391-0.794-0.953-0.977-1.685v0c-1.829 1.628-3.64 2.442-5.433 2.443v0c-1.262 0-2.332-0.357-3.21-1.071-0.878-0.713-1.317-1.71-1.317-2.991v0c0-0.878 0.247-1.643 0.741-2.293 0.494-0.648 1.158-1.141 1.992-1.482 0.831-0.337 1.731-0.505 2.7-0.505v0c0.823 0 1.582 0.077 2.277 0.23 0.695 0.157 1.409 0.382 2.141 0.675v0-1.207c0-0.933-0.311-1.619-0.933-2.058-0.622-0.439-1.436-0.659-2.442-0.658v0c-1.427 0-3.146 0.393-5.159 1.179v0l-0.549-2.085c2.159-0.915 4.171-1.372 6.037-1.372v0c1.774 0 3.152 0.434 4.132 1.301 0.977 0.871 1.465 2.138 1.466 3.803v0 4.747c0 0.896 0.32 1.345 0.96 1.344v0c0.274 0 0.558-0.073 0.851-0.219zM63.786 205.513c0 0.622 0.247 1.101 0.741 1.438 0.494 0.34 1.098 0.51 1.811 0.51v0c0.622 0 1.335-0.165 2.141-0.493 0.805-0.329 1.637-0.814 2.497-1.455v0-1.454c-1.244-0.439-2.561-0.677-3.952-0.713v0c-0.896 0-1.659 0.187-2.288 0.559-0.633 0.377-0.949 0.913-0.95 1.608zM92.9 196.403v2.168h-2.14l-5.735 11.113h-1.372l-5.845-11.113h-1.976v-2.168h6.998v1.976h-2.168l3.951 7.957 3.869-7.957h-2.223v-1.976zM108.101 207.05l0.549 1.948c-0.604 0.366-1.308 0.549-2.113 0.549v0c-0.677 0-1.249-0.198-1.717-0.593-0.465-0.391-0.788-0.953-0.972-1.685v0c-1.829 1.628-3.64 2.442-5.433 2.443v0c-1.262 0-2.332-0.357-3.21-1.071-0.878-0.713-1.317-1.71-1.317-2.991v0c0-0.878 0.247-1.643 0.74-2.293 0.494-0.648 1.156-1.141 1.987-1.482 0.834-0.337 1.736-0.505 2.706-0.505v0c0.823 0 1.582 0.077 2.277 0.23 0.695 0.157 1.409 0.382 2.14 0.675v0-1.207c0-0.933-0.311-1.619-0.933-2.058-0.622-0.439-1.436-0.659-2.442-0.658v0c-1.427 0-3.146 0.393-5.158 1.179v0l-0.549-2.085c2.159-0.915 4.171-1.372 6.037-1.372v0c1.774 0 3.15 0.434 4.127 1.301 0.981 0.871 1.471 2.138 1.47 3.803v0 4.747c0 0.896 0.32 1.345 0.961 1.344v0c0.274 0 0.558-0.073 0.85-0.219zM96.549 205.513c0 0.622 0.247 1.101 0.741 1.438 0.494 0.34 1.098 0.51 1.811 0.51v0c0.622 0 1.335-0.165 2.14-0.493 0.805-0.329 1.637-0.814 2.497-1.455v0-1.454c-1.244-0.439-2.561-0.677-3.951-0.713v0c-0.896 0-1.661 0.187-2.294 0.559-0.629 0.377-0.944 0.913-0.944 1.608zM116.745 201.699c1.683 0.457 2.976 1.028 3.88 1.712 0.907 0.688 1.361 1.608 1.361 2.761v0c0 1.061-0.448 1.917-1.345 2.568-0.896 0.648-2.003 0.971-3.32 0.972v0c-0.915 0-1.815-0.161-2.7-0.483-0.889-0.318-1.681-0.761-2.376-1.328v0 1.454h-2.086v-4.198l1.18-0.11c0.695 0.787 1.568 1.458 2.618 2.014 1.054 0.56 2.084 0.84 3.09 0.84v0c0.677 0 1.207-0.128 1.591-0.385 0.384-0.256 0.576-0.622 0.576-1.097v0c0-0.549-0.302-1.002-0.905-1.361-0.604-0.355-1.591-0.715-2.964-1.081v0c-1.646-0.439-2.914-0.993-3.803-1.663-0.885-0.666-1.328-1.538-1.328-2.618v0c0-0.677 0.187-1.295 0.56-1.855 0.377-0.556 0.907-0.995 1.591-1.317 0.688-0.318 1.48-0.477 2.377-0.477v0c0.878 0 1.714 0.146 2.508 0.439 0.798 0.293 1.489 0.704 2.074 1.234v0-1.317h2.058v4.171l-1.207 0.137c-0.512-0.86-1.213-1.551-2.102-2.074-0.885-0.52-1.767-0.779-2.645-0.779v0c-0.713 0-1.299 0.141-1.757 0.422-0.457 0.285-0.686 0.657-0.686 1.114v0c0 0.494 0.302 0.909 0.906 1.246 0.604 0.34 1.555 0.693 2.854 1.059zM136.583 205.486l1.208 1.756c-1.701 1.646-3.686 2.47-5.955 2.47v0c-1.207 0-2.341-0.284-3.402-0.851-1.061-0.567-1.912-1.368-2.552-2.404-0.64-1.032-0.96-2.215-0.96-3.55v0c0-1.262 0.293-2.42 0.878-3.474 0.585-1.05 1.372-1.877 2.36-2.481 0.988-0.604 2.058-0.905 3.21-0.905v0c1.829 0 3.256 0.649 4.281 1.948v0-1.592h1.948v4.528l-1.153 0.082c-0.896-1.829-2.323-2.744-4.28-2.744v0c-0.841 0-1.601 0.198-2.278 0.593-0.677 0.391-1.207 0.935-1.591 1.63-0.384 0.695-0.576 1.491-0.576 2.387v0c0 0.878 0.207 1.665 0.62 2.36 0.41 0.695 0.948 1.229 1.613 1.602 0.67 0.377 1.388 0.565 2.157 0.566v0c0.896 0.018 1.687-0.137 2.371-0.467 0.688-0.329 1.388-0.814 2.101-1.454zM151.373 196.074h1.153v5.488h-2.387v-2.826c-0.713 0-1.491 0.265-2.333 0.795-0.841 0.53-1.71 1.281-2.607 2.251v0 5.378h2.937v2.167h-8.534v-2.167h2.908v-8.589h-2.908v-2.168h5.597v3.238c0.97-1.116 1.981-1.99 3.035-2.623 1.05-0.629 2.096-0.944 3.139-0.944zM158.617 193.467c-0.585 0-1.079-0.155-1.481-0.466-0.402-0.311-0.604-0.704-0.604-1.18v0c0-0.494 0.201-0.902 0.604-1.224 0.402-0.318 0.896-0.477 1.481-0.477v0c0.622 0 1.134 0.159 1.537 0.477 0.402 0.322 0.604 0.73 0.604 1.224v0c0 0.476-0.201 0.869-0.604 1.18-0.402 0.311-0.915 0.466-1.537 0.466zM160.264 207.16h2.936v2.167h-8.534v-2.167h2.909v-8.589h-2.909v-2.168h5.598zM174.532 196.047c1.079 0 2.076 0.284 2.991 0.85 0.915 0.567 1.646 1.359 2.195 2.377 0.549 1.013 0.823 2.17 0.824 3.468v0c0 1.335-0.298 2.534-0.895 3.594-0.593 1.061-1.401 1.888-2.426 2.481-1.024 0.596-2.159 0.895-3.402 0.895v0c-1.628 0-3.128-0.622-4.5-1.866v0 5.295h2.991v2.168h-8.507v-2.168h2.882v-14.57h-2.882v-2.168h5.516v2.497c0.713-0.878 1.527-1.573 2.442-2.085 0.915-0.512 1.838-0.768 2.771-0.768zM173.243 207.407c0.86 0 1.632-0.198 2.316-0.593 0.688-0.391 1.224-0.944 1.607-1.657 0.384-0.713 0.576-1.527 0.577-2.443v0c0-1.299-0.371-2.354-1.114-3.166-0.739-0.816-1.685-1.224-2.838-1.224v0c-0.787 0-1.564 0.238-2.332 0.714-0.768 0.476-1.482 1.134-2.14 1.975v0 4.802c1.317 1.061 2.625 1.591 3.924 1.592zM192.505 206.391l0.933 2.031c-0.677 0.402-1.341 0.713-1.992 0.933-0.648 0.22-1.392 0.329-2.234 0.329v0c-1.409 0-2.53-0.445-3.364-1.333-0.831-0.885-1.246-2.151-1.245-3.798v0-5.982h-2.882v-2.168h2.882v-3.594h2.689v3.594h4.28v2.168h-4.28v6.009c0 0.933 0.21 1.619 0.631 2.058 0.421 0.439 0.988 0.659 1.701 0.659v0c0.512 0 0.997-0.079 1.454-0.236 0.457-0.154 0.933-0.377 1.427-0.67z" fill="#bb84e8" fill-rule="nonzero" stroke="none" stroke-width="1" stroke-linecap="butt" stroke-linejoin="miter" stroke-miterlimit="10" stroke-dasharray="" stroke-dashoffset="0" font-family="none" font-weight="none" font-size="none" text-anchor="none" style="mix-blend-mode: normal" data-fill-palette-color="secondary"></path></g></g><g transform="matrix(1,0,0,1,29.331764404296877,56.28909560229294)"><svg viewBox="0 0 316.416 61.13946016260162" height="61.13946016260162" width="316.416"><g><svg viewBox="0 0 316.416 61.13946016260162" height="61.13946016260162" width="316.416"><g><svg viewBox="0 0 316.416 61.13946016260162" height="61.13946016260162" width="316.416"><g><svg viewBox="0 0 316.416 61.13946016260162" height="61.13946016260162" width="316.416"><g><svg viewBox="0 0 316.416 61.13946016260162" height="61.13946016260162" width="316.416" id="textblock"><g><svg viewBox="0 0 316.416 61.13946016260162" height="61.13946016260162" width="316.416"><g transform="matrix(1,0,0,1,0,0)"><svg width="316.416" viewBox="3.200000047683716 -35.349998474121094 184.49000549316406 35.64999771118164" height="61.13946016260162" data-palette-color="#a437db"><path d="M9.3-13.2L8.3 0 3.2 0 5.8-33.7 11.9-33.7 16.4-21.4Q17.6-18.25 18.8-14.73 20-11.2 20.6-9.25L20.6-9.25 21.25-7.3Q23.55-14.1 26.3-21.4L26.3-21.4 31-33.7 37.1-33.7 40.2 0 35.1 0 33.9-13.2 32.85-26.7Q30.6-20.35 27.95-13.2L27.95-13.2 23.25-0.65 19.2-0.65 14.65-13.2 10.1-26.5Q10.1-24.3 9.3-13.2L9.3-13.2ZM55.05-3.65L55.05-3.65Q57.45-3.65 58.82-4.98 60.2-6.3 60.2-8.45L60.2-8.45 60.2-11.3 56.4-11.3Q53.6-11.3 52.17-10.2 50.75-9.1 50.75-7.4L50.75-7.4Q50.75-5.65 51.85-4.65 52.95-3.65 55.05-3.65ZM60.35 0L60.35-3Q58.4 0.2 53.5 0.2L53.5 0.2Q49.9 0.2 47.72-1.88 45.55-3.95 45.55-7.15L45.55-7.15Q45.55-10.8 48.3-12.83 51.05-14.85 56-14.85L56-14.85 60.2-14.85 60.2-16.3Q60.2-18.9 58.95-20.23 57.7-21.55 54.8-21.55L54.8-21.55Q50.75-21.55 47.45-19.3L47.45-19.3 47.45-24.05Q50.4-25.75 55.25-25.75L55.25-25.75Q65.2-25.75 65.2-16.1L65.2-16.1 65.2 0 60.35 0ZM85.1-5.05L85.1-0.65Q83.45 0.25 81.05 0.25L81.05 0.25Q73.2 0.25 73.2-7.7L73.2-7.7 73.2-21.55 69.25-21.55 69.25-25.35 73.2-25.35 73.2-31.55 78.15-31.55 78.15-25.35 84.8-25.35 84.8-21.55 78.15-21.55 78.15-7.6Q78.15-3.95 81.65-3.95L81.65-3.95Q83.7-3.95 85.1-5.05L85.1-5.05ZM111.44-17L111.44 0 106.54 0 106.54-16Q106.54-18.6 105.22-20.03 103.89-21.45 101.74-21.45L101.74-21.45Q99.24-21.45 97.32-19.55 95.39-17.65 95.39-13.75L95.39-13.75 95.39 0 90.49 0 90.49-35.35 95.39-35.35 95.39-21Q97.54-25.7 103.24-25.7L103.24-25.7Q106.94-25.7 109.19-23.4 111.44-21.1 111.44-17L111.44-17ZM136.94-5.75L136.94-1.35Q134.14 0.25 129.54 0.25L129.54 0.25Q123.64 0.25 120.14-3.3 116.64-6.85 116.64-12.6L116.64-12.6Q116.64-18.7 119.84-22.18 123.04-25.65 127.99-25.65L127.99-25.65Q132.84-25.65 135.69-22.63 138.54-19.6 138.54-13.9L138.54-13.9Q138.54-12.35 138.24-10.65L138.24-10.65 121.59-10.65Q122.09-7.35 124.39-5.6 126.69-3.85 130.19-3.85L130.19-3.85Q134.24-3.85 136.94-5.75L136.94-5.75ZM128.09-21.6L128.09-21.6Q125.59-21.6 123.79-19.78 121.99-17.95 121.54-14.5L121.54-14.5 133.79-14.5 133.79-15.4Q133.69-18.25 132.24-19.93 130.79-21.6 128.09-21.6ZM164.94-25.35L164.94 0 160.04 0 160.04-4.35Q158.04 0.3 152.14 0.3L152.14 0.3Q148.39 0.3 146.19-1.93 143.99-4.15 143.99-8.05L143.99-8.05 143.99-25.35 148.94-25.35 148.94-9.25Q148.94-6.65 150.21-5.28 151.49-3.9 153.74-3.9L153.74-3.9Q156.59-3.9 158.31-5.9 160.04-7.9 160.04-11.55L160.04-11.55 160.04-25.35 164.94-25.35ZM187.69-7L187.69-7Q187.69-3.6 185.29-1.68 182.89 0.25 178.79 0.25L178.79 0.25Q174.29 0.25 171.29-1.25L171.29-1.25 171.29-5.9Q174.79-3.75 178.54-3.75L178.54-3.75Q180.49-3.75 181.56-4.55 182.64-5.35 182.64-6.65L182.64-6.65Q182.64-7.75 181.79-8.63 180.94-9.5 180.06-9.93 179.19-10.35 177.09-11.25L177.09-11.25Q171.14-13.7 171.14-18.45L171.14-18.45Q171.14-21.8 173.64-23.7 176.14-25.6 179.89-25.6L179.89-25.6Q183.99-25.6 186.29-24.5L186.29-24.5 186.29-20.05Q183.84-21.5 179.99-21.5L179.99-21.5Q178.24-21.5 177.21-20.7 176.19-19.9 176.19-18.6L176.19-18.6Q176.19-18.25 176.26-17.93 176.34-17.6 176.54-17.28 176.74-16.95 176.91-16.73 177.09-16.5 177.49-16.25 177.89-16 178.11-15.83 178.34-15.65 178.86-15.4 179.39-15.15 179.64-15.03 179.89-14.9 180.51-14.63 181.14-14.35 181.39-14.25L181.39-14.25Q184.34-12.95 186.01-11.33 187.69-9.7 187.69-7Z" opacity="1" transform="matrix(1,0,0,1,0,0)" fill="#a437db" class="undefined-text-0" data-fill-palette-color="primary" id="text-0"></path></svg></g></svg></g></svg></g></svg></g></svg></g></svg></g></svg></g></svg></g><defs></defs></svg><rect width="375.07952880859375" height="173.7176513671875" fill="none" stroke="none" visibility="hidden"></rect></g></svg></g></svg>